<svg width="2000" height="1000" viewBox="0 0 2000 1000" fill="none" xmlns="http://www.w3.org/2000/svg">
<rect width="2000" height="1000" rx="15" fill="#48555D"/>
<path d="M273.68 490.64V475.88C270.92 475.4 268.22 475.16 265.58 475.16C258.14 475.16 252.92 477.32 249.92 481.64C247.04 485.96 245.6 492.8 245.6 502.16C245.6 511.52 247.1 518.48 250.1 523.04C253.22 527.48 258.62 529.7 266.3 529.7C273.98 529.7 281.84 528.62 289.88 526.46L292.58 543.74C284.18 546.14 275.18 547.34 265.58 547.34C238.94 547.34 225.62 532.34 225.62 502.34C225.62 486.86 228.62 475.58 234.62 468.5C240.74 461.3 250.88 457.7 265.04 457.7C274.16 457.7 282.92 458.84 291.32 461.12V490.64H273.68ZM321.74 469.04C327.86 461.72 337.28 458.06 350 458.06C362.72 458.06 372.14 461.72 378.26 469.04C384.38 476.24 387.44 487.4 387.44 502.52C387.44 517.64 384.38 528.92 378.26 536.36C372.14 543.68 362.72 547.34 350 547.34C337.28 547.34 327.86 543.68 321.74 536.36C315.62 528.92 312.56 517.64 312.56 502.52C312.56 487.4 315.62 476.24 321.74 469.04ZM336.14 481.82C333.74 486.02 332.54 492.92 332.54 502.52C332.54 512.12 333.8 519.08 336.32 523.4C338.84 527.72 343.4 529.88 350 529.88C356.6 529.88 361.16 527.72 363.68 523.4C366.2 519.08 367.46 512.12 367.46 502.52C367.46 492.92 366.2 486.02 363.68 481.82C361.28 477.62 356.72 475.52 350 475.52C343.28 475.52 338.66 477.62 336.14 481.82ZM423.08 459.5L423.44 464.72C433.16 460.28 440.78 458.06 446.3 458.06C456.02 458.06 463.16 460.94 467.72 466.7C472.4 472.34 474.74 481.22 474.74 493.34V545H456.2V493.88C456.2 488.12 455.18 483.62 453.14 480.38C451.1 477.14 447.92 475.52 443.6 475.52C439.28 475.52 432.62 477.62 423.62 481.82V545H405.08V459.5H423.08ZM496.34 541.04L500.3 524.66C511.7 528.26 520.76 530.06 527.48 530.06C534.2 530.06 538.76 529.4 541.16 528.08C543.56 526.88 544.76 524.72 544.76 521.6C544.76 518.48 543.68 516.26 541.52 514.94C539.36 513.62 535.28 512.24 529.28 510.8C517.4 507.92 509.12 504.74 504.44 501.26C499.76 497.66 497.42 491.84 497.42 483.8C497.42 466.64 508.46 458.06 530.54 458.06C540.02 458.06 551 459.62 563.48 462.74L560.06 479.84C548.18 476.48 539 474.8 532.52 474.8C526.04 474.8 521.66 475.4 519.38 476.6C517.22 477.68 516.14 479.6 516.14 482.36C516.14 485.12 517.22 487.16 519.38 488.48C521.66 489.68 527.42 491.54 536.66 494.06C545.9 496.58 552.68 499.52 557 502.88C561.32 506.12 563.48 511.7 563.48 519.62C563.48 537.74 552.32 546.8 530 546.8C519.56 546.8 508.34 544.88 496.34 541.04ZM591.74 469.04C597.86 461.72 607.28 458.06 620 458.06C632.72 458.06 642.14 461.72 648.26 469.04C654.38 476.24 657.44 487.4 657.44 502.52C657.44 517.64 654.38 528.92 648.26 536.36C642.14 543.68 632.72 547.34 620 547.34C607.28 547.34 597.86 543.68 591.74 536.36C585.62 528.92 582.56 517.64 582.56 502.52C582.56 487.4 585.62 476.24 591.74 469.04ZM606.14 481.82C603.74 486.02 602.54 492.92 602.54 502.52C602.54 512.12 603.8 519.08 606.32 523.4C608.84 527.72 613.4 529.88 620 529.88C626.6 529.88 631.16 527.72 633.68 523.4C636.2 519.08 637.46 512.12 637.46 502.52C637.46 492.92 636.2 486.02 633.68 481.82C631.28 477.62 626.72 475.52 620 475.52C613.28 475.52 608.66 477.62 606.14 481.82ZM676.7 545V528.44H703.52V441.68L680.3 441.86L680.12 425.48L722.06 425.3V528.44H747.44V545H676.7ZM763.82 502.34C763.82 487.82 767.06 476.84 773.54 469.4C780.02 461.84 789.02 458.06 800.54 458.06C812.06 458.06 820.94 461.48 827.18 468.32C833.54 475.04 836.84 484.94 837.08 498.02L836.36 511.34H783.8C784.88 524.3 791.36 530.78 803.24 530.78C811.52 530.78 820.28 529.28 829.52 526.28L833.3 541.94C829.46 543.26 824.48 544.4 818.36 545.36C812.24 546.44 807.2 546.98 803.24 546.98C776.96 546.98 763.82 532.1 763.82 502.34ZM801.26 474.8C795.62 474.8 791.36 476.48 788.48 479.84C785.72 483.08 784.16 488.54 783.8 496.22H817.1C817.1 481.94 811.82 474.8 801.26 474.8ZM876.5 545V518.9H902.6V545H876.5ZM946.7 545V528.44H973.52V441.68L950.3 441.86L950.12 425.48L992.06 425.3V528.44H1017.44V545H946.7ZM1041.74 469.04C1047.86 461.72 1057.28 458.06 1070 458.06C1082.72 458.06 1092.14 461.72 1098.26 469.04C1104.38 476.24 1107.44 487.4 1107.44 502.52C1107.44 517.64 1104.38 528.92 1098.26 536.36C1092.14 543.68 1082.72 547.34 1070 547.34C1057.28 547.34 1047.86 543.68 1041.74 536.36C1035.62 528.92 1032.56 517.64 1032.56 502.52C1032.56 487.4 1035.62 476.24 1041.74 469.04ZM1056.14 481.82C1053.74 486.02 1052.54 492.92 1052.54 502.52C1052.54 512.12 1053.8 519.08 1056.32 523.4C1058.84 527.72 1063.4 529.88 1070 529.88C1076.6 529.88 1081.16 527.72 1083.68 523.4C1086.2 519.08 1087.46 512.12 1087.46 502.52C1087.46 492.92 1086.2 486.02 1083.68 481.82C1081.28 477.62 1076.72 475.52 1070 475.52C1063.28 475.52 1058.66 477.62 1056.14 481.82ZM1196.36 524.3L1198.88 549.14C1198.88 570.5 1184.06 581.18 1154.42 581.18C1145.66 581.18 1135.04 578.72 1122.56 573.8L1127.06 557.42C1138.94 561.98 1148.78 564.26 1156.58 564.26C1164.38 564.26 1170.2 563.12 1174.04 560.84C1178 558.56 1179.98 554.72 1179.98 549.32L1178.18 536.18C1175.3 538.58 1171.52 540.68 1166.84 542.48C1162.28 544.16 1157.9 545 1153.7 545C1142.78 545 1134.74 541.7 1129.58 535.1C1124.54 528.38 1122.02 517.4 1122.02 502.16C1122.02 473 1134.14 458.42 1158.38 458.42C1165.46 458.42 1171.94 460.28 1177.82 464L1178.18 458.42H1196.36V524.3ZM1160 475.16C1153.16 475.16 1148.24 477.32 1145.24 481.64C1142.24 485.84 1140.74 492.38 1140.74 501.26C1140.74 510.14 1141.88 516.86 1144.16 521.42C1146.44 525.98 1150.52 528.26 1156.4 528.26C1162.28 528.26 1169.42 524.78 1177.82 517.82V480.02C1172.9 476.78 1166.96 475.16 1160 475.16ZM1242.26 407.12C1244.06 409.76 1246.16 412.76 1248.56 416.12C1251.08 419.36 1253.6 422.54 1256.12 425.66C1258.76 428.66 1261.04 431.3 1262.96 433.58V435.92H1245.14C1242.86 434.36 1240.16 432.44 1237.04 430.16C1234.04 427.76 1230.92 425.24 1227.68 422.6C1224.56 419.96 1221.62 417.44 1218.86 415.04C1216.1 412.64 1213.88 410.6 1212.2 408.92V407.12H1242.26ZM1275.97 545V427.1H1294.87V477.86H1335.73V427.1H1354.63V545H1335.73V494.78H1294.87V545H1275.97ZM1369.03 502.34C1369.03 487.82 1372.27 476.84 1378.75 469.4C1385.23 461.84 1394.23 458.06 1405.75 458.06C1417.27 458.06 1426.15 461.48 1432.39 468.32C1438.75 475.04 1442.05 484.94 1442.29 498.02L1441.57 511.34H1389.01C1390.09 524.3 1396.57 530.78 1408.45 530.78C1416.73 530.78 1425.49 529.28 1434.73 526.28L1438.51 541.94C1434.67 543.26 1429.69 544.4 1423.57 545.36C1417.45 546.44 1412.41 546.98 1408.45 546.98C1382.17 546.98 1369.03 532.1 1369.03 502.34ZM1406.47 474.8C1400.83 474.8 1396.57 476.48 1393.69 479.84C1390.93 483.08 1389.37 488.54 1389.01 496.22H1422.31C1422.31 481.94 1417.03 474.8 1406.47 474.8ZM1461.91 545V528.44H1488.73V441.68L1465.51 441.86L1465.33 425.48L1507.27 425.3V528.44H1532.65V545H1461.91ZM1551.91 545V528.44H1578.73V441.68L1555.51 441.86L1555.33 425.48L1597.27 425.3V528.44H1622.65V545H1551.91ZM1646.95 469.04C1653.07 461.72 1662.49 458.06 1675.21 458.06C1687.93 458.06 1697.35 461.72 1703.47 469.04C1709.59 476.24 1712.65 487.4 1712.65 502.52C1712.65 517.64 1709.59 528.92 1703.47 536.36C1697.35 543.68 1687.93 547.34 1675.21 547.34C1662.49 547.34 1653.07 543.68 1646.95 536.36C1640.83 528.92 1637.77 517.64 1637.77 502.52C1637.77 487.4 1640.83 476.24 1646.95 469.04ZM1661.35 481.82C1658.95 486.02 1657.75 492.92 1657.75 502.52C1657.75 512.12 1659.01 519.08 1661.53 523.4C1664.05 527.72 1668.61 529.88 1675.21 529.88C1681.81 529.88 1686.37 527.72 1688.89 523.4C1691.41 519.08 1692.67 512.12 1692.67 502.52C1692.67 492.92 1691.41 486.02 1688.89 481.82C1686.49 477.62 1681.93 475.52 1675.21 475.52C1668.49 475.52 1663.87 477.62 1661.35 481.82ZM1757.47 407.12C1759.27 409.76 1761.37 412.76 1763.77 416.12C1766.29 419.36 1768.81 422.54 1771.33 425.66C1773.97 428.66 1776.25 431.3 1778.17 433.58V435.92H1760.35C1758.07 434.36 1755.37 432.44 1752.25 430.16C1749.25 427.76 1746.13 425.24 1742.89 422.6C1739.77 419.96 1736.83 417.44 1734.07 415.04C1731.31 412.64 1729.09 410.6 1727.41 408.92V407.12H1757.47Z" fill="white"/>
</svg>
